HIERARCHY
ROOT Hips
{
  OFFSET -35.2597 29.1586 114.425
  CHANNELS 6 Xposition Yposition Zposition Zrotation Xrotation Yrotation
  JOINT LeftUpLeg
  {
    OFFSET 8.64259 1.95398 -2.38835
    CHANNELS 3 Zrotation Xrotation Yrotation
    JOINT LeftLeg
    {
      OFFSET 43.7702 0 0
      CHANNELS 3 Zrotation Xrotation Yrotation
      JOINT LeftFoot
      {
        OFFSET 40.6238 0 0
        CHANNELS 3 Zrotation Xrotation Yrotation
        JOINT LeftToeBase
        {
          OFFSET 12.7242 0 0
          CHANNELS 3 Zrotation Xrotation Yrotation
          End Site
          {
            OFFSET 0 0 0
          }
        }
      }
    }
  }
  JOINT RightUpLeg
  {
    OFFSET -8.2249 1.95398 -2.59336
    CHANNELS 3 Zrotation Xrotation Yrotation
    JOINT RightLeg
    {
      OFFSET 43.5653 0 0
      CHANNELS 3 Zrotation Xrotation Yrotation
      JOINT RightFoot
      {
        OFFSET 40.6238 0 0
        CHANNELS 3 Zrotation Xrotation Yrotation
        JOINT RightToeBase
        {
          OFFSET 12.7242 0 0
          CHANNELS 3 Zrotation Xrotation Yrotation
          End Site
          {
            OFFSET 0 0 0
          }
        }
      }
    }
  }
  JOINT Spine
  {
    OFFSET 0.165834 0.87714 6.61349
    CHANNELS 3 Zrotation Xrotation Yrotation
    JOINT Spine1
    {
      OFFSET 7.38963 1.71661e-005 0
      CHANNELS 3 Zrotation Xrotation Yrotation
      JOINT Spine2
      {
        OFFSET 11.9445 1.14441e-005 0
        CHANNELS 3 Zrotation Xrotation Yrotation
        JOINT Spine3
        {
          OFFSET 14.7254 4.19617e-005 0
          CHANNELS 3 Zrotation Xrotation Yrotation
          JOINT Spine4
          {
            OFFSET 10.9679 0 0
            CHANNELS 3 Zrotation Xrotation Yrotation
            JOINT RightShoulder
            {
              OFFSET 2.46616 -1.6653 3.69651
              CHANNELS 3 Zrotation Xrotation Yrotation
              JOINT RightArm
              {
                OFFSET 13.0012 0 0
                CHANNELS 3 Zrotation Xrotation Yrotation
                JOINT RightForeArm
                {
                  OFFSET 28.7848 1.62311e-005 0
                  CHANNELS 3 Zrotation Xrotation Yrotation
                  JOINT RightHand
                  {
                    OFFSET 26.5688 1.62095e-005 0
                    CHANNELS 3 Zrotation Xrotation Yrotation
                    End Site
                    {
                      OFFSET 0 0 0
                    }
                  }
                }
              }
            }
            JOINT LeftShoulder
            {
              OFFSET 2.38034 -1.29275 -3.7523
              CHANNELS 3 Zrotation Xrotation Yrotation
              JOINT LeftArm
              {
                OFFSET 16.3182 6.07031e-005 0
                CHANNELS 3 Zrotation Xrotation Yrotation
                JOINT LeftForeArm
                {
                  OFFSET 27.0901 0 0
                  CHANNELS 3 Zrotation Xrotation Yrotation
                  JOINT LeftHand
                  {
                    OFFSET 24.5451 1.51738e-005 0
                    CHANNELS 3 Zrotation Xrotation Yrotation
                    End Site
                    {
                      OFFSET 0 0 0
                    }
                  }
                }
              }
            }
            JOINT Neck
            {
              OFFSET 5.0226 -0.0266342 0
              CHANNELS 3 Zrotation Xrotation Yrotation
              JOINT Head
              {
                OFFSET 6.69364 2.86102e-005 0
                CHANNELS 3 Zrotation Xrotation Yrotation
                End Site
                {
                  OFFSET 0 0 0
                }
              }
            }
          }
        }
      }
    }
  }
}
MOTION
Frames:	17
Frame Time:	0.0416667
-13.5261 102.169 17.4336 93.5395 21.4918 75.0243 -177.411 30.4222 79.2813 -34.3622 5.23378 -1.76556 81.9928 15.3215 -0.590176 17.2334 -10.0078 6.09647 171.215 -2.26046 82.5218 -20.1962 -4.43278 -2.46323 65.3767 -3.67973 -2.06018 32.5818 -3.56069 7.90796 2.52204 8.25451 -88.0929 10.2756 5.8962 3.28148 -1.38539 6.03482 3.01824 -23.9601 4.63829 4.90246 -3.94744 4.63828 4.90245 88.1925 -27.4682 -111.46 44.8216 2.78222 -19.5619 -4.52919 -28.7306 -5.07306 -29.4969 0.352385 -6.56524 -85.6814 -54.6462 85.8423 -11.756 -18.4541 15.5103 7.28105 20.1818 -16.5936 25.7741 4.45756 13.6313 -0.953105 12.4027 36.6328 -7.69011 7.6973 -4.22692 
-1.5191 94.6481 5.39842 94.5145 21.9525 77.872 -176.657 28.0153 80.6935 -21.1688 5.83425 -2.95991 73.9452 10.019 -1.61448 20.8203 -9.17173 8.35946 168.783 -14.8497 81.4778 -21.6561 0.763453 -3.66473 82.8103 -15.0619 0.00175122 38.3571 -3.17524 -3.71695 2.00545 8.24005 -88.7531 10.3481 4.56553 2.0815 -1.31613 4.6527 1.87821 -23.8845 3.72902 3.35827 -3.87181 3.72901 3.35826 88.9725 -27.0562 -110.061 49.8254 2.35006 -12.279 -4.32238 -24.4887 -5.00406 -31.5458 -0.157153 -4.62962 -85.3043 -65.117 87.5732 -12.1821 -18.2231 14.1551 6.97121 21.1971 -15.1788 18.9554 2.66091 10.2971 2.72704 12.3566 28.589 -6.78746 7.53497 -0.231979 
14.7667 92.6911 -6.78688 95.3709 27.407 79.9316 -173.515 27.788 80.4692 -37.3315 10.2357 -4.54295 68.2606 4.80952 -0.445917 16.0741 -13.0069 9.17391 167.452 -15.4946 79.2218 -37.4134 2.08232 -2.48591 65.1823 -3.58537 -1.85863 36.6406 -4.11152 2.05789 1.28442 7.84111 -88.6774 11.1511 3.17057 2.32357 -0.517967 3.26975 2.18173 -23.0536 2.32604 3.16869 -3.04093 2.32605 3.16869 88.0888 -31.8991 -109.741 51.3163 7.33839 5.19419 -4.20673 -21.9839 -4.96776 -28.7523 0.634969 -7.74501 -86.5164 -62.7974 85.7312 -10.5913 -19.0625 4.64706 6.28638 29.1448 -10.6966 16.1598 2.28457 10.2857 7.3696 10.2471 13.8619 -8.81935 7.64964 -4.74031 
27.0696 93.0593 -16.9266 97.9837 31.6475 80.7311 -172.472 17.4347 78.0928 -45.4983 15.169 -4.30473 80.1864 14.4199 2.51288 14.2597 -14.6672 9.84653 172.7 9.96591 90.9627 -88.8027 -10.3511 -3.27883 59.9107 -0.202347 -1.68888 22.9686 -0.541041 8.79981 0.265903 7.92418 -88.9285 11.0032 1.0261 2.04316 -0.669017 1.115 1.99604 -23.191 0.364815 2.25698 -3.1783 0.364819 2.25698 91.0382 -30.2301 -104.601 46.2244 11.832 16.776 -4.07552 -19.0775 -4.94157 -26.4542 0.339239 -6.67187 -85.5099 -54.3808 86.0571 -11.6632 -19.2949 -17.8298 2.88242 28.3515 -3.78845 26.2065 3.50858 9.63261 8.78574 7.18198 0.637002 -9.17794 7.57636 -9.53908 
37.1529 102.335 -27.1944 102.764 29.7924 86.3382 -173.71 -1.3546 87.5744 -26.9665 13.264 -1.46471 61.7699 1.11558 0.00902174 17.1416 -8.34719 3.52402 179.88 31.1043 98.0618 -101.544 2.24672 -3.74676 65.8291 -4.05071 -3.86596 20.4253 0.457277 8.36063 -0.199872 8.34042 -90.2693 10.1917 -0.521014 -0.490424 -1.47922 -0.542042 -0.467037 -24.0141 -0.349534 -0.624337 -4.00142 -0.349509 -0.624337 90.7179 -27.8936 -106.122 37.2182 14.3716 21.5766 -4.23208 -22.5457 -4.9779 -26.3576 0.165232 -5.93353 -85.0141 -45.8988 85.6601 -11.9505 -19.7923 -26.0316 2.91836 25.3551 -3.98183 33.1439 4.12507 8.74077 -1.53731 7.77252 -0.924112 -5.71637 8.31741 -11.969 
46.99 110.271 -37.2773 105.016 38.723 88.0431 -174.351 -7.16126 91.2619 -18.7577 20.7192 1.00368 44.7385 -8.84294 -5.23582 10.5062 -13.1397 4.43346 -179.771 39.9894 100.235 -94.5893 3.89541 -3.56345 74.4385 -8.87076 -4.20895 16.899 2.08391 7.4414 -0.941142 8.63961 -91.2962 9.55326 -2.46051 -2.37654 -2.11736 -2.5627 -2.26597 -24.6441 -1.6329 -3.00579 -4.63143 -1.6329 -3.00579 89.8474 -27.1505 -108.217 31.7717 15.9297 28.5777 -4.36048 -25.2906 -5.01517 -23.8658 0.346697 -6.90833 -86.4988 -40.8997 82.4248 -11.1649 -20.8402 -32.5821 2.89664 24.7094 -3.95796 28.3801 2.99401 6.83611 -5.02695 5.79132 -4.50213 -3.24693 6.47331 -11.679 
57.4228 111.227 -46.4331 102.664 45.8406 88.884 -174.714 -6.68258 89.9936 -9.23932 12.158 0.275321 48.669 -5.1126 -4.42497 12.3779 -15.3901 9.00826 179.352 42.9315 99.5758 -79.8534 -1.93377 -2.75154 74.3666 -8.47597 -4.49884 19.7843 1.10324 7.27289 -1.24609 8.64448 -91.4935 9.54102 -3.15766 -2.71945 -2.12861 -3.27426 -2.57785 -24.6582 -2.19492 -3.54221 -4.64551 -2.19491 -3.5422 89.7325 -29.181 -107.609 33.5232 16.0732 31.1382 -4.27072 -23.3843 -4.98853 -24.9244 0.473374 -7.44588 -86.4108 -39.4294 82.2832 -12.9837 -20.2226 -41.4329 2.89467 24.6345 -3.95459 29.022 3.49999 8.35503 -0.5347 2.03937 -13.0166 -3.5905 3.99461 -10.6884 
69.2984 105.422 -56.1164 102.576 50.3637 89.6569 -175.277 -2.17864 91.0514 -19.9183 16.8907 1.57011 56.8024 -0.959105 3.35216 21.9215 -7.19553 5.87611 177.896 38.9745 101.171 -58.0272 -8.45472 -0.192631 73.2893 -7.90777 -2.65892 24.4312 -0.173142 6.02214 -1.23363 8.59097 -91.537 9.64398 -3.15327 -2.80446 -2.02588 -3.27359 -2.66298 -24.5533 -2.16525 -3.6219 -4.54062 -2.16526 -3.6219 88.4144 -31.4833 -109.256 39.3686 15.5977 30.6584 -4.06523 -18.8419 -4.93824 -24.4601 0.42073 -7.21569 -86.8313 -41.3372 81.9546 -16.3222 -17.7821 -45.9097 3.08397 29.7704 -4.15024 27.7617 3.5263 8.96179 -2.82371 -0.516649 -18.2838 -1.06494 1.58006 -10.5294 
82.7169 95.7456 -66.5355 106.322 50.823 85.9595 -167.915 -16.6303 97.4824 -23.8707 18.74 0.412197 90.9558 21.7433 -3.90603 25.1948 -7.32843 9.97524 178.485 31.4864 102.563 -37.184 -9.96391 1.63742 72.4006 -8.07904 -2.68306 26.0258 -0.180357 4.21808 -1.05111 8.74738 -91.0542 9.3547 -2.56947 -1.89928 -2.31494 -2.65055 -1.78435 -24.8512 -1.88006 -2.58357 -4.83856 -1.88006 -2.58357 89.9689 -35.231 -104.958 44.6701 13.6817 23.6104 -3.91191 -15.3176 -4.91294 -24.966 0.185874 -6.07899 -86.9084 -49.0554 83.209 -21.1038 -13.6623 -46.4409 3.07183 29.7249 -4.1224 33.5411 3.11804 5.50807 -1.5042 -2.49982 -20.5679 -1.81198 0.233587 -14.3959 
96.4375 92.3988 -81.6126 101.38 50.6048 87.5887 -168.268 -24.063 96.4767 -25.9205 17.7388 1.19219 78.1149 14.9068 2.72414 34.8135 -1.93181 11.4683 174.24 28.1881 100.874 -37.1926 -7.10549 4.90809 63.9976 -1.4714 -2.51239 22.7741 0.733697 5.2224 -1.17149 7.99981 -91.0754 10.8508 -2.82966 -1.87576 -0.818139 -2.90948 -1.74937 -23.358 -2.13524 -2.63936 -3.34538 -2.13522 -2.63936 90.0833 -35.7674 -104.577 43.1879 12.2416 15.626 -3.71986 -10.7713 -4.89362 -21.5651 0.000538566 -5.28695 -88.5772 -56.1093 81.9537 -24.5848 -11.9658 -29.7631 3.53529 39.5135 -4.61103 26.5412 2.85839 7.03004 0.783694 -2.79429 -15.1951 -4.24998 -0.331692 -12.0371 
107.556 91.9647 -93.795 100.58 48.9614 87.1769 -169.88 1.82807 89.6959 -75.8299 22.8497 2.29229 62.0129 1.42531 3.1597 5.95438 -14.925 2.83438 170.783 24.0393 100.143 -52.7516 -11.2765 5.32398 77.8227 -12.3256 -5.18331 20.4835 1.71575 4.87685 -0.184611 7.95733 -91.2919 10.9344 -0.965817 -2.49204 -0.738593 -1.0745 -2.44715 -23.2539 -0.172562 -2.66698 -3.24123 -0.172554 -2.66697 91.5663 -31.0734 -103.274 44.4344 8.89495 2.85294 -3.92185 -15.5511 -4.91504 -28.4375 -0.430137 -3.05756 -88.1347 -60.033 83.2132 -20.4489 -14.8807 -14.7291 2.81247 32.0561 -3.56034 24.0044 3.81911 12.2058 9.23453 -2.39651 0.816155 -5.29377 -2.32595 -3.31027 
118.9 99.8641 -102.606 104.031 49.9319 78.5556 -175.629 30.1875 90.4619 -99.0327 16.3443 4.18717 61.9549 1.16645 6.2727 4.4115 -14.134 0.693173 172.815 5.55772 96.5269 -37.7473 -9.29044 3.01912 66.3238 -4.06017 -2.84108 29.3748 -2.81906 9.2238 0.756588 8.29637 -90.0572 10.2936 1.48119 -0.2237 -1.37653 1.46991 -0.288698 -23.9188 1.48 0.231901 -3.90612 1.48001 0.231897 93.2119 -27.0744 -101.226 48.7434 4.56454 -6.93805 -4.04509 -18.3876 -4.93496 -31.6861 0.979338 -8.819 -87.0839 -53.9225 83.7231 -9.44206 -20.3246 -1.31299 7.38764 28.5132 -13.1008 24.0585 4.47281 14.8361 2.23379 -2.88277 1.8362 -3.38483 -3.27383 4.33267 
130.384 109.293 -112.208 102.824 45.1281 73.2144 -176.256 40.8213 82.5979 -87.5157 15.4711 3.13248 68.1764 5.0631 5.91706 2.13697 -15.9728 1.07965 175.197 -5.84819 89.7763 -22.2302 -15.8127 -1.96709 49.0891 6.13258 3.08175 22.2864 1.3407 4.03059 1.45163 8.34605 -88.5474 10.1365 3.55479 2.58512 -1.53186 3.66508 2.4261 -24.07 2.614 3.53362 -4.05738 2.61398 3.53361 91.4958 -26.7682 -104.937 50.7674 3.01918 -8.77913 -4.25165 -22.9705 -4.98312 -30.4033 1.34385 -10.2435 -87.0183 -48.2251 82.9012 1.03927 -21.8432 2.35568 3.0598 29.2378 -4.12432 25.8102 3.14947 8.48601 -6.81544 -1.47349 3.50379 -1.36188 -1.75605 2.49934 
139.808 112.266 -122.829 96.8205 38.1939 75.096 -176.336 43.6585 78.8437 -69.3238 13.4401 1.2447 74.0705 8.69445 3.24744 4.46686 -16.6264 3.64945 169.802 -4.56298 85.2799 -14.4111 -11.6452 1.06039 45.9628 6.66641 7.63079 32.6462 -1.86269 0.952779 2.21573 8.39179 -88.1854 10.0098 5.24072 3.16953 -1.65382 5.37507 2.93546 -24.214 4.04667 4.59809 -4.2013 4.04669 4.59809 90.4544 -27.7808 -106.707 48.3711 4.16837 -8.77391 -4.23578 -22.6266 -4.97872 -29.1375 1.53129 -11.2152 -85.906 -56.0807 85.7214 6.14555 -23.4356 2.16896 3.10317 31.7288 -4.11854 34.1784 4.5966 9.52134 -3.49744 -0.48806 17.6925 -2.24715 -2.38389 -3.65353 
149.89 108.385 -134.103 93.3619 32.0441 76.4474 -176.558 39.0593 78.3459 -45.7988 12.7973 -1.63807 78.5906 12.6175 1.04065 13.7858 -11.9983 5.74618 170.736 -1.35215 83.8967 -12.5148 0.253747 0.716317 55.8332 1.66005 2.44029 29.9446 -2.00954 5.93411 2.36328 8.34888 -88.259 10.0929 5.50189 3.00222 -1.56931 5.62862 2.75669 -24.14 4.34591 4.5176 -4.12739 4.34591 4.5176 89.4534 -28.4459 -108.479 47.7075 5.02548 -6.97057 -4.31394 -24.3085 -5.00166 -30.8599 1.17909 -9.57427 -85.2881 -56.245 86.6042 -6.9045 -19.1569 8.90579 4.11344 27.0029 -6.53459 34.864 5.9766 13.3667 -2.71042 2.33487 24.9754 -1.73607 -0.542843 -2.92554 
160.618 100.025 -146.319 94.7244 27.0755 79.3851 -176.89 30.2759 81.3647 -22.2654 5.20437 -2.66035 76.3788 11.8444 -0.95769 19.9631 -9.77932 8.41827 169.647 -6.57382 83.4586 -23.5846 2.54051 -0.185973 76.5274 -10.4485 0.610688 36.8484 -3.80997 1.79294 2.0833 8.58225 -89.1247 9.70094 4.54969 1.36633 -1.96244 4.60538 1.16439 -24.5438 3.92853 2.67211 -4.5311 3.92851 2.67211 90.383 -27.1439 -107.108 49.6676 4.14264 -6.80816 -4.10336 -19.6979 -4.94498 -31.4594 0.232186 -5.99941 -85.0727 -69.7916 88.3066 -10.6325 -17.9612 7.65463 2.84006 22.3652 -3.93134 32.9049 5.92114 14.3578 -0.834007 6.33108 28.6954 -0.703768 2.46492 2.12745 
175.927 96.7542 -159.651 95.6601 27.9479 82.9815 -176.433 25.6053 83.4154 -23.8139 7.93391 -2.62604 67.0328 4.21589 -2.48391 15.8181 -10.001 4.77146 168.35 -18.116 83.6083 -24.6464 -0.151778 -0.863165 66.1522 -4.16613 -1.306 56.5122 -11.1732 1.18797 1.45369 7.89558 -89.3037 11.0693 3.21669 1.07548 -0.597962 3.26091 0.932728 -23.1543 2.74472 1.99301 -3.14167 2.74473 1.99301 89.426 -29.8515 -107.954 54.7254 5.60911 3.52236 -3.94973 -16.197 -4.91846 -27.8041 0.654123 -7.9085 -84.9475 -67.5412 88.2586 -13.5124 -17.8867 15.4864 11.3538 33.0888 -18.8284 20.352 3.67145 14.1927 -5.69832 7.5805 22.6187 -0.122428 5.5208 1.98467 
